<?xml version="1.0" standalone="no"?><!DOCTYPE svg PUBLIC "-//W3C//DTD SVG 1.1//EN" "http://www.w3.org/Graphics/SVG/1.1/DTD/svg11.dtd"><svg t="1740892236498" class="icon" viewBox="0 0 1024 1024" version="1.1" xmlns="http://www.w3.org/2000/svg" p-id="32354" xmlns:xlink="http://www.w3.org/1999/xlink" width="200" height="200"><path d="M873.653333 106.464a39.008 39.008 0 0 1 39.008 39.008v728.181333a39.008 39.008 0 0 1-39.008 39.008H145.472a39.008 39.008 0 0 1-39.008-39.008V145.472a39.008 39.008 0 0 1 39.008-39.008h728.181333z m0 39.008H145.472v728.181333h728.181333V145.472z" fill="#000000" opacity=".2" p-id="32355"></path><path d="M726.4 22.293333c2.773333 5.461333 4.213333 11.498667 4.213333 17.621334v754.912c0 14.698667-8.266667 28.16-21.386666 34.794666L345.141333 1014.005333a39.008 39.008 0 0 1-56.64-34.794666V224.298667c0-14.698667 8.277333-28.16 21.397334-34.794667L673.984 5.12A39.008 39.008 0 0 1 726.4 22.282667v0.010666z m-34.794667 772.533334V39.914667L327.52 224.298667v754.912l364.085333-184.384z" fill="#000000" opacity=".2" p-id="32356"></path><path d="M22.293333 726.4c5.461333 2.773333 11.498667 4.213333 17.621334 4.213333h754.912c14.698667 0 28.16-8.266667 34.794666-21.386666l184.384-364.085334a39.008 39.008 0 0 0-34.794666-56.64H224.298667c-14.698667 0-28.16 8.277333-34.794667 21.397334L5.12 673.984A39.008 39.008 0 0 0 22.282667 726.4h0.010666z m38.773334-47.797333l171.2-338.08h725.770666l-171.2 338.08H61.077333z" fill="#000000" p-id="32357"></path><path d="M777.248 454.570667c8.96 42.144-26.154667 88.661333-87.541333 125.898666l-7.349334 4.330667c-3.733333 2.144-7.541333 4.266667-11.434666 6.336l-7.936 4.106667-4.032 2.016-8.256 3.946666c-27.84 12.970667-59.2 24.106667-92.970667 32.576l-10.208 2.453334c-6.88 1.6-13.792 3.072-20.725333 4.416l-10.325334 1.898666c-34.304 5.994667-67.477333 8.576-98.186666 8.053334l-9.141334-0.256a405.568 405.568 0 0 1-26.453333-1.845334l-8.48-0.970666c-71.210667-9.056-122.208-37.258667-131.168-79.413334-10.538667-49.578667 39.914667-105.194667 122.4-144.661333l8.341333-3.904a500.128 500.128 0 0 1 49.482667-19.242667l9.578667-3.072 9.749333-2.922666c6.613333-1.92 13.28-3.722667 19.968-5.397334l10.208-2.474666c6.88-1.589333 13.792-3.061333 20.725333-4.405334l10.325334-1.898666c6.794667-1.184 13.6-2.24 20.437333-3.178667l10.090667-1.301333 10.016-1.098667a500.128 500.128 0 0 1 53.013333-2.517333l9.216 0.149333c3.04 0.085333 6.08 0.202667 9.066667 0.341333l8.906666 0.522667c82.314667 5.76 142.826667 35.232 152.682667 81.514667z m-50.88 10.816c-2.272-10.634667-21.194667-24.597333-58.581333-33.546667-46.837333-11.2-109.269333-10.528-173.856 3.189333-64.608 13.728-121.92 38.506667-160.128 67.808-30.506667 23.381333-42.133333 43.84-39.893334 54.474667 2.272 10.624 21.205333 24.576 58.592 33.536 46.826667 11.2 109.258667 10.528 173.866667-3.189333 64.597333-13.728 121.898667-38.506667 160.106667-67.808 30.528-23.36 42.133333-43.818667 39.893333-54.464z" fill="#000000" p-id="32358"></path><path d="M777.248 454.570667c8.96 42.144-26.154667 88.661333-87.541333 125.898666l-7.349334 4.330667c-3.733333 2.144-7.541333 4.266667-11.434666 6.336l-7.936 4.106667-4.032 2.016-8.256 3.946666c-27.84 12.970667-59.2 24.106667-92.970667 32.576l-10.208 2.453334c-6.88 1.6-13.792 3.072-20.725333 4.416l-10.325334 1.898666c-34.304 5.994667-67.477333 8.576-98.186666 8.053334l-9.141334-0.256a405.568 405.568 0 0 1-26.453333-1.845334l-8.48-0.970666c-71.210667-9.056-122.208-37.258667-131.168-79.413334-10.538667-49.578667 39.914667-105.194667 122.4-144.661333l8.341333-3.904a500.128 500.128 0 0 1 49.482667-19.242667l9.578667-3.072 9.749333-2.922666c6.613333-1.92 13.28-3.722667 19.968-5.397334l10.208-2.474666c6.88-1.589333 13.792-3.061333 20.725333-4.405334l10.325334-1.898666c6.794667-1.184 13.6-2.24 20.437333-3.178667l10.090667-1.301333 10.016-1.098667a500.128 500.128 0 0 1 53.013333-2.517333l9.216 0.149333c3.04 0.085333 6.08 0.202667 9.066667 0.341333l8.906666 0.522667c82.314667 5.76 142.826667 35.232 152.682667 81.514667z" fill="#000000" opacity=".5" p-id="32359"></path></svg>