<?xml version="1.0" standalone="no"?><!DOCTYPE svg PUBLIC "-//W3C//DTD SVG 1.1//EN" "http://www.w3.org/Graphics/SVG/1.1/DTD/svg11.dtd"><svg t="1740892198781" class="icon" viewBox="0 0 1024 1024" version="1.1" xmlns="http://www.w3.org/2000/svg" p-id="29381" xmlns:xlink="http://www.w3.org/1999/xlink" width="200" height="200"><path d="M873.653333 106.464a39.008 39.008 0 0 1 39.008 39.008v728.181333a39.008 39.008 0 0 1-39.008 39.008H145.472a39.008 39.008 0 0 1-39.008-39.008V145.472a39.008 39.008 0 0 1 39.008-39.008h728.181333z m-13.013333 52.010667H158.485333v702.176h702.176V158.474667z" fill="#000000" p-id="29382"></path><path d="M726.4 22.293333c2.773333 5.461333 4.213333 11.498667 4.213333 17.621334v754.912c0 14.698667-8.266667 28.16-21.386666 34.794666L345.141333 1014.005333a39.008 39.008 0 0 1-56.64-34.794666V224.298667c0-14.698667 8.277333-28.16 21.397334-34.794667L673.984 5.12A39.008 39.008 0 0 1 726.4 22.282667v0.010666z m-34.794667 772.533334V39.914667L327.52 224.298667v754.912l364.085333-184.384z" fill="#000000" opacity=".2" p-id="29383"></path><path d="M22.293333 726.4c5.461333 2.773333 11.498667 4.213333 17.621334 4.213333h754.912c14.698667 0 28.16-8.266667 34.794666-21.386666l184.384-364.085334a39.008 39.008 0 0 0-34.794666-56.64H224.298667c-14.698667 0-28.16 8.277333-34.794667 21.397334L5.12 673.984A39.008 39.008 0 0 0 22.282667 726.4h0.010666z m17.621334-34.794667l184.384-364.085333h754.912L794.826667 691.605333H39.914667z" fill="#000000" opacity=".2" p-id="29384"></path><path d="M509.557333 275.509333c129.269333 0 234.058667 104.789333 234.058667 234.048 0 129.269333-104.789333 234.058667-234.058667 234.058667-129.258667 0-234.048-104.789333-234.048-234.058667 0-129.258667 104.789333-234.048 234.048-234.048z m0 52.010667c-100.533333 0-182.037333 81.493333-182.037333 182.037333 0 100.544 81.493333 182.048 182.037333 182.048 100.544 0 182.048-81.493333 182.048-182.048 0-100.533333-81.493333-182.037333-182.048-182.037333z" fill="#000000" p-id="29385"></path><path d="M509.557333 275.509333c129.269333 0 234.058667 104.789333 234.058667 234.048 0 129.269333-104.789333 234.058667-234.058667 234.058667-129.258667 0-234.048-104.789333-234.048-234.058667 0-129.258667 104.789333-234.048 234.048-234.048z" fill="#000000" opacity=".5" p-id="29386"></path></svg>