<?xml version="1.0" standalone="no"?><!DOCTYPE svg PUBLIC "-//W3C//DTD SVG 1.1//EN" "http://www.w3.org/Graphics/SVG/1.1/DTD/svg11.dtd"><svg t="1741672166296" class="icon" viewBox="0 0 1024 1024" version="1.1" xmlns="http://www.w3.org/2000/svg" p-id="3429" xmlns:xlink="http://www.w3.org/1999/xlink" width="200" height="200"><path d="M512 1024a40 40 0 0 1-40-40V654a40 40 0 1 1 80 0V984a40 40 0 0 1-40 40z m40-654V40a40 40 0 1 0-80 0v330a40 40 0 1 0 80 0zM1024 512a40 40 0 0 0-40-40H652a40 40 0 1 0 0 80H984a40 40 0 0 0 40-40z m-614 0a40 40 0 0 0-40-40H40a40 40 0 1 0 0 80h330a40 40 0 0 0 40-40zM512 552a40 40 0 1 0 0-80 40 40 0 0 0 0 80z" fill="#2c2c2c" p-id="3430"></path></svg>