<?xml version="1.0" standalone="no"?><!DOCTYPE svg PUBLIC "-//W3C//DTD SVG 1.1//EN" "http://www.w3.org/Graphics/SVG/1.1/DTD/svg11.dtd"><svg t="1740892210213" class="icon" viewBox="0 0 1024 1024" version="1.1" xmlns="http://www.w3.org/2000/svg" p-id="30421" xmlns:xlink="http://www.w3.org/1999/xlink" width="200" height="200"><path d="M873.653333 106.464a39.008 39.008 0 0 1 39.008 39.008v728.181333a39.008 39.008 0 0 1-39.008 39.008H145.472a39.008 39.008 0 0 1-39.008-39.008V145.472a39.008 39.008 0 0 1 39.008-39.008h728.181333z m0 39.008H145.472v728.181333h728.181333V145.472z" fill="#000000" opacity=".2" p-id="30422"></path><path d="M726.4 22.293333c2.773333 5.461333 4.213333 11.498667 4.213333 17.621334v754.912c0 14.698667-8.266667 28.16-21.386666 34.794666L345.141333 1014.005333a39.008 39.008 0 0 1-56.64-34.794666V224.298667c0-14.698667 8.277333-28.16 21.397334-34.794667L673.984 5.12A39.008 39.008 0 0 1 726.4 22.282667v0.010666zM678.613333 61.066667l-338.08 171.2v725.770666l338.08-171.2V61.077333z" fill="#000000" p-id="30423"></path><path d="M585.408 248.853333c41.418667 11.882667 66.005333 64.714667 70.058667 136.394667l0.394666 8.522667c0.128 4.288 0.213333 8.661333 0.213334 13.077333l-0.106667 8.917333-0.117333 4.512-0.394667 9.141334c-1.610667 30.677333-6.506667 63.594667-14.869333 97.397333l-2.613334 10.154667c-1.834667 6.826667-3.786667 13.621333-5.856 20.373333l-3.157333 10.026667c-10.826667 33.098667-24.106667 63.573333-38.986667 90.453333l-4.512 7.957333c-4.437333 7.648-9.12 15.146667-14.048 22.496l-4.842666 7.018667c-41.429333 58.634667-90.272 90.410667-131.701334 78.538667-48.725333-13.973333-74.154667-84.650667-70.272-175.978667l0.490667-9.205333c1.066667-16.981333 3.125333-34.645333 6.229333-52.714667l1.781334-9.92 1.994666-9.962667c1.386667-6.688 2.933333-13.408 4.608-20.170666l2.613334-10.165334c1.824-6.826667 3.776-13.621333 5.845333-20.373333l3.168-10.026667c2.165333-6.613333 4.416-13.12 6.773333-19.52l3.594667-9.525333 3.733333-9.354667a500.128 500.128 0 0 1 22.666667-48l4.458667-8.064c1.514667-2.645333 3.029333-5.258667 4.554666-7.84l4.650667-7.616c43.733333-69.984 98.176-109.578667 143.648-96.533333v-0.010667z m-14.336 50.005334c-10.453333-2.986667-31.669333 7.178667-57.12 35.978666-31.882667 36.085333-60.608 91.52-78.805333 154.997334-18.208 63.488-23.221333 125.717333-15.306667 173.226666 6.314667 37.909333 18.922667 57.781333 29.376 60.778667 10.442667 2.986667 31.658667-7.178667 57.109333-35.978667 31.893333-36.096 60.608-91.541333 78.816-155.008 18.197333-63.488 23.221333-125.717333 15.296-173.226666-6.314667-37.909333-18.912-57.781333-29.365333-60.768z" fill="#000000" p-id="30424"></path><path d="M585.408 248.853333c41.418667 11.882667 66.005333 64.714667 70.058667 136.394667l0.394666 8.522667c0.128 4.288 0.213333 8.661333 0.213334 13.077333l-0.106667 8.917333-0.117333 4.512-0.394667 9.141334c-1.610667 30.677333-6.506667 63.594667-14.869333 97.397333l-2.613334 10.154667c-1.834667 6.826667-3.786667 13.621333-5.856 20.373333l-3.157333 10.026667c-10.826667 33.098667-24.106667 63.573333-38.986667 90.453333l-4.512 7.957333c-4.437333 7.648-9.12 15.146667-14.048 22.496l-4.842666 7.018667c-41.429333 58.634667-90.272 90.410667-131.701334 78.538667-48.725333-13.973333-74.154667-84.650667-70.272-175.978667l0.490667-9.205333c1.066667-16.981333 3.125333-34.645333 6.229333-52.714667l1.781334-9.92 1.994666-9.962667c1.386667-6.688 2.933333-13.408 4.608-20.170666l2.613334-10.165334c1.824-6.826667 3.776-13.621333 5.845333-20.373333l3.168-10.026667c2.165333-6.613333 4.416-13.12 6.773333-19.52l3.594667-9.525333 3.733333-9.354667a500.128 500.128 0 0 1 22.666667-48l4.458667-8.064c1.514667-2.645333 3.029333-5.258667 4.554666-7.84l4.650667-7.616c43.733333-69.984 98.176-109.578667 143.648-96.533333v-0.010667z" fill="#000000" opacity=".5" p-id="30425"></path><path d="M22.293333 726.4c5.461333 2.773333 11.498667 4.213333 17.621334 4.213333h754.912c14.698667 0 28.16-8.266667 34.794666-21.386666l184.384-364.085334a39.008 39.008 0 0 0-34.794666-56.64H224.298667c-14.698667 0-28.16 8.277333-34.794667 21.397334L5.12 673.984A39.008 39.008 0 0 0 22.282667 726.4h0.010666z m17.621334-34.794667l184.384-364.085333h754.912L794.826667 691.605333H39.914667z" fill="#000000" opacity=".2" p-id="30426"></path></svg>