<?xml version="1.0" standalone="no"?><!DOCTYPE svg PUBLIC "-//W3C//DTD SVG 1.1//EN" "http://www.w3.org/Graphics/SVG/1.1/DTD/svg11.dtd"><svg t="1741444380240" class="icon" viewBox="0 0 1024 1024" version="1.1" xmlns="http://www.w3.org/2000/svg" p-id="5358" xmlns:xlink="http://www.w3.org/1999/xlink" width="200" height="200"><path d="M82.944 938.496m82.944 0a82.944 82.944 0 1 0-165.888 0 82.944 82.944 0 1 0 165.888 0Z" p-id="5359" fill="#ffffff"></path><path d="M339.968 884.736L970.24 884.736C999.936 884.736 1024 908.8 1024 938.496S999.936 992.256 970.24000001 992.256l-630.27200002 0c-29.69599999 0-53.76-24.064-53.75999999-53.76s24.064-53.76 53.76-53.76z" p-id="5360" fill="#ffffff"></path><path d="M82.944 83.456m82.944 0a82.944 82.944 0 1 0-165.888 0 82.944 82.944 0 1 0 165.888 0Z" p-id="5361" fill="#ffffff"></path><path d="M339.968 29.696L970.24 29.696c29.69599999 0 53.76 24.064 53.76 53.76s-24.064 53.76-53.76 53.76l-630.272 0c-29.69599999 0-53.76-24.064-53.76-53.76s24.064-53.76 53.76-53.76z" p-id="5362" fill="#ffffff"></path><path d="M82.94400001 513.536m82.94399999 1e-8a82.944 82.944 0 1 0-165.888-1e-8 82.944 82.944 0 1 0 165.888 1e-8Z" p-id="5363" fill="#ffffff"></path><path d="M339.968 459.776L970.24 459.776C999.936 459.77599999 1024 483.84 1024 513.536s-24.064 53.76-53.76 53.76l-630.272 0c-29.69599999 0-53.76-24.064-53.76-53.76s24.064-53.76 53.76-53.76z" p-id="5364" fill="#ffffff"></path></svg>