<?xml version="1.0" standalone="no"?><!DOCTYPE svg PUBLIC "-//W3C//DTD SVG 1.1//EN" "http://www.w3.org/Graphics/SVG/1.1/DTD/svg11.dtd"><svg t="1741141539623" class="icon" viewBox="0 0 1024 1024" version="1.1" xmlns="http://www.w3.org/2000/svg" p-id="4679" xmlns:xlink="http://www.w3.org/1999/xlink" width="200" height="200"><path d="M113.777778 113.777778h227.555555v796.444444H113.777778zM398.222222 113.777778h227.555556v796.444444H398.222222zM682.666667 113.777778h227.555555v796.444444h-227.555555z" fill="#666666" p-id="4680"></path><path d="M881.777778 1024h-739.555556C62.577778 1024 0 961.422222 0 881.777778v-739.555556C0 62.577778 62.577778 0 142.222222 0h739.555556C961.422222 0 1024 62.577778 1024 142.222222v739.555556c0 79.644444-62.577778 142.222222-142.222222 142.222222zM142.222222 56.888889C96.711111 56.888889 56.888889 96.711111 56.888889 142.222222v739.555556c0 45.511111 39.822222 85.333333 85.333333 85.333333h739.555556c45.511111 0 85.333333-39.822222 85.333333-85.333333v-739.555556c0-45.511111-39.822222-85.333333-85.333333-85.333333h-739.555556z" fill="#666666" p-id="4681"></path></svg>