<?xml version="1.0" standalone="no"?><!DOCTYPE svg PUBLIC "-//W3C//DTD SVG 1.1//EN" "http://www.w3.org/Graphics/SVG/1.1/DTD/svg11.dtd"><svg t="1741928641704" class="icon" viewBox="0 0 1024 1024" version="1.1" xmlns="http://www.w3.org/2000/svg" p-id="3545" xmlns:xlink="http://www.w3.org/1999/xlink" width="200" height="200"><path d="M317.15397 602.452881a58.879706 58.879706 0 0 1 58.879705-58.879706h271.92753a59.164149 59.164149 0 1 1 0 118.043855h-271.92753a59.164149 59.164149 0 0 1-58.879705-59.164149zM207.927849 262.54347A389.971383 389.971383 0 0 1 511.99744 118.330857a394.238029 394.238029 0 0 1 369.775929 262.54091l3.128873 9.102176h123.163829l-4.835532-17.635467A513.704098 513.704098 0 0 0 511.99744 0.00256 506.593023 506.593023 0 0 0 109.510564 196.837131L0 123.735275v365.22484l312.887324-156.443662zM711.107556 691.483547l105.243918 69.972983A389.971383 389.971383 0 0 1 511.99744 905.669143a394.522472 394.522472 0 0 1-369.775929-262.54091l-3.128873-9.102176H14.791037l4.835532 17.635467A513.704098 513.704098 0 0 0 511.99744 1023.99744a506.593023 506.593023 0 0 0 402.486876-196.834571L1023.99488 899.980282V535.039885z m-335.073881-211.056722h272.496416a56.888604 56.888604 0 0 0 40.959795-18.77324 56.888604 56.888604 0 0 0 15.644366-42.38201 59.164149 59.164149 0 0 0-56.888604-56.888605h-272.211973a59.164149 59.164149 0 0 0 0 118.043855z" fill="#2c2c2c" p-id="3546"></path></svg>