<?xml version="1.0" standalone="no"?><!DOCTYPE svg PUBLIC "-//W3C//DTD SVG 1.1//EN" "http://www.w3.org/Graphics/SVG/1.1/DTD/svg11.dtd"><svg t="1740998473574" class="icon" viewBox="0 0 1024 1024" version="1.1" xmlns="http://www.w3.org/2000/svg" p-id="4407" xmlns:xlink="http://www.w3.org/1999/xlink" width="200" height="200"><path d="M483.555556 0m0 0l56.888888 0q0 0 0 0l0 170.666667q0 0 0 0l-56.888888 0q0 0 0 0l0-170.666667q0 0 0 0Z" fill="#DBDEE2" p-id="4408"></path><path d="M483.555556 284.444444m0 0l56.888888 0q0 0 0 0l0 170.666667q0 0 0 0l-56.888888 0q0 0 0 0l0-170.666667q0 0 0 0Z" fill="#DBDEE2" p-id="4409"></path><path d="M483.555556 568.888889m0 0l56.888888 0q0 0 0 0l0 170.666667q0 0 0 0l-56.888888 0q0 0 0 0l0-170.666667q0 0 0 0Z" fill="#DBDEE2" p-id="4410"></path><path d="M483.555556 853.333333m0 0l56.888888 0q0 0 0 0l0 170.666667q0 0 0 0l-56.888888 0q0 0 0 0l0-170.666667q0 0 0 0Z" fill="#DBDEE2" p-id="4411"></path></svg>