<?xml version="1.0" standalone="no"?><!DOCTYPE svg PUBLIC "-//W3C//DTD SVG 1.1//EN" "http://www.w3.org/Graphics/SVG/1.1/DTD/svg11.dtd"><svg t="1740889802450" class="icon" viewBox="0 0 1025 1024" version="1.1" xmlns="http://www.w3.org/2000/svg" p-id="20661" xmlns:xlink="http://www.w3.org/1999/xlink" width="200.1953125" height="200"><path d="M922.031631 103.629195C782.931572-34.768875 554.526559-31.896454 411.872558 110.033046c-95.046726 94.564749-147.804301 265.547958-64.396659 417.358503L22.010293 919.17456c0 0-33.765011 78.458933-14.69263 97.144504 18.755156 18.377556 97.043197-6.822382 97.043197-6.822382l388.310933-339.016227c115.923196 61.688991 326.490959 36.669154 422.921195-59.277058C1058.246989 469.273896 1061.132712 242.025219 922.031631 103.629195zM880.093473 573.428048c-99.903338 99.396801-263.382643 96.243995-383.064442 42.470277-9.210779-4.13825-30.475082 10.939143-30.475082 10.939143L90.034573 994.147088c0 0-59.947324 18.104333-68.390623 9.892301-8.565073-8.333806 13.399171-65.420989 13.399171-65.420989S311.751257 653.045363 393.979026 550.030152c9.468652-11.862165 4.573155-21.600971 4.573155-21.600971-61.550845-115.417683-48.861848-283.925515 51.03842-383.322315C571.508325 23.804149 766.712169 21.350261 885.59579 139.631154 1004.476341 257.913071 1002.011196 452.128401 880.093473 573.428048z" p-id="20662"></path></svg>