<?xml version="1.0" standalone="no"?><!DOCTYPE svg PUBLIC "-//W3C//DTD SVG 1.1//EN" "http://www.w3.org/Graphics/SVG/1.1/DTD/svg11.dtd"><svg t="1740889214307" class="icon" viewBox="0 0 1024 1024" version="1.1" xmlns="http://www.w3.org/2000/svg" p-id="11292" xmlns:xlink="http://www.w3.org/1999/xlink" width="200" height="200"><path d="M944.5 376.6c3.6-8.7 5.7-18.1 6.1-27.9 0-1.1 0-2.1 0.1-3.2v-1l-1.7-184c-0.4-45.3-37.3-81.8-82.5-81.8h-0.8c-41 0.4-74.7 30.5-80.8 69.8-9.8-7.1-19.9-13.8-30.3-20.1-102.5-62.1-223.1-80.6-339.5-52C298.8 104.8 200.5 177 138.4 279.5S57.8 502.6 86.4 619s100.7 214.7 203.2 276.8c71 43 150.7 65.1 231.7 65.1 35.9 0 72-4.3 107.8-13.1C745.5 919.2 843.8 847 905.9 744.5c23.6-39 11.2-89.8-27.8-113.4-39-23.6-89.8-11.2-113.4 27.8-81 133.7-255.7 176.6-389.5 95.6-64.8-39.2-110.4-101.4-128.5-174.9-18.1-73.6-6.4-149.7 32.9-214.5 80.1-132.1 251.6-175.6 384.7-98.4-36.3 9-63.1 41.9-62.7 80.9 0.4 45.3 37.3 81.8 82.5 81.8h0.8l184-1.7c31.3-0.3 58.5-18 72.2-43.9 1.2-2.2 2.2-4.5 3.2-6.8 0.1-0.1 0.2-0.3 0.2-0.4z" fill="#2c2c2c" p-id="11293"></path></svg>