<?xml version="1.0" standalone="no"?><!DOCTYPE svg PUBLIC "-//W3C//DTD SVG 1.1//EN" "http://www.w3.org/Graphics/SVG/1.1/DTD/svg11.dtd"><svg t="1740900091885" class="icon" viewBox="0 0 1024 1024" version="1.1" xmlns="http://www.w3.org/2000/svg" p-id="47990" xmlns:xlink="http://www.w3.org/1999/xlink" width="200" height="200"><path d="M428.032 973.824c-105.472 0-201.728-37.888-271.36-106.496C-6.144 703.488 20.48 412.672 216.064 216.064 321.536 111.616 460.8 50.176 595.968 50.176c105.472 0 201.728 37.888 271.36 106.496C946.176 235.52 983.04 346.112 971.776 467.968c-11.264 123.904-69.632 243.712-163.84 338.944C702.464 912.384 563.2 973.824 428.032 973.824z m167.936-841.728c-113.664 0-230.4 52.224-321.536 142.336-78.848 78.848-128 177.152-140.288 278.528-11.264 101.376 17.408 192.512 80.896 256 54.272 54.272 128 82.944 212.992 82.944 113.664 0 230.4-52.224 321.536-142.336 163.84-163.84 190.464-403.456 59.392-534.528-54.272-54.272-128-82.944-212.992-82.944z" fill="" p-id="47991"></path></svg>